<?xml version="1.0" encoding="utf-8"?>
<!-- Generator: Adobe Adobe Illustrator 24.2.0, SVG Export Plug-In . SVG Version: 6.00 Build 0)  -->
<svg version="1.1" xmlns="http://www.w3.org/2000/svg" xmlns:xlink="http://www.w3.org/1999/xlink" x="0px" y="0px" width="100px"
	 height="125px" viewBox="0 0 100 125" style="enable-background:new 0 0 100 125;" xml:space="preserve">
<style type="text/css">
	.st0{fill:none;stroke:#000000;stroke-width:3;stroke-miterlimit:10;}
	.st1{fill:none;stroke:#231F20;stroke-linecap:round;stroke-miterlimit:10;}
	.st2{fill:#5C5C5C;stroke:#000000;stroke-miterlimit:10;}
	.st3{fill:#5C3170;stroke:#000000;stroke-width:1.5;stroke-miterlimit:10;}
	.st4{fill:#1C1130;stroke:#000000;stroke-width:0.7;stroke-miterlimit:10;}
	.st5{fill:none;stroke:#C99400;stroke-width:0.6;stroke-miterlimit:10;}
	.st6{fill:none;stroke:#C99400;stroke-width:0.4;stroke-linecap:round;stroke-miterlimit:10;}
	.st7{fill:none;stroke:#000000;stroke-width:1.5;stroke-linecap:round;stroke-miterlimit:10;}
	.st8{fill:#E86705;stroke:#000000;stroke-width:1.5;stroke-linecap:round;stroke-miterlimit:10;}
	.st9{stroke:#000000;stroke-width:1.5;stroke-linecap:round;stroke-miterlimit:10;}
	.st10{fill:#58525C;stroke:#000000;stroke-width:1.5;stroke-linecap:round;stroke-miterlimit:10;}
</style>
<g id="Layer_2_1_">
	<path class="st0" d="M35.3,68.1c2-2.1,5.3-2.1,7.4-0.1c2.6,2.5,2.6,6.7,0.1,9.3c-3.2,3.2-8.4,3.3-11.6,0.1c-4-4-4.1-10.4-0.1-14.5
		c5-5,13.1-5.1,18.1-0.1c6.3,6.2,6.4,16.3,0.2,22.6c-7.7,7.9-20.4,8-28.3,0.2c-9.8-9.7-10-25.5-0.3-35.3
		C32.9,37.9,52.7,37.8,65,49.9c15.4,15.1,15.6,39.9,0.4,55.2"/>
	<path class="st0" d="M14.7,82.6c-3.9,2-6.2,5.1-5.6,10.3c0.4,8.1,4.3,11.9,11.1,12.1H78c5.9,0,11.4-2.6,11.4-10.2V31.1
		c0.2-3-1.6-9.5-7.9-9.5h-7.7c-4.5,0-8.3,3.6-8.3,8.6v20"/>
	<circle class="st1" cx="78" cy="30.8" r="2.1"/>
	<circle class="st1" cx="78.9" cy="30.7" r="1.1"/>
</g>
<g id="Layer_6">
</g>
<g id="Layer_4">
</g>
<g id="Layer_3">
	<path class="st3" d="M87.4,20.4c-1.3-1.6-2-3.6-2.8-5.5s-1.9-3.8-3.8-4.7c-1.7-1.6-3.7-2.7-5.8-3.6c-2.1-0.7-4.4-0.9-6.6-0.5
		c-1.3,0.1-2.6,0.4-3.8,0.6c-1.1,0.2-2.2,0.4-3,1.2c-0.6,0.6-1.1,1.5-1.9,1.6c-1.5,1.4-2.3,3.9-1.8,6.1c0,0.1,0.1,0.2,0.2,0.2
		c0.2,0,0.2-0.2,0.2-0.4c-0.1-0.5,0.1-1,0.5-1.4c0.4-0.4,0.9-0.5,1.4-0.5c0.3,0.1,0.7-0.2,0.9-0.5c0.2-0.3,0.4-0.6,0.7-0.7
		c0.5-0.2,0.9,0.3,1.4,0.5c0.8,0.4,1.8,0.2,2.6,0c0.4,0.3,1,0.3,1.4,0c0.3-0.1,0.6,0.3,0.5,0.7c-0.1,0.3-0.4,0.5-0.5,0.8
		c-0.2,0.3-0.1,0.5-0.1,0.9c-0.3,3.3-1.4,6.5-3.1,9.3c0,0-4.5,0.4-6.5,1.9c-1.5,0.8-6.4,1.3-3.9,1.8l1.1,0.2
		c5.8,1.1,10.7-2.2,16.5-2.5c21.3-0.9,25.7-5.3,25.7-5.3c0.3-0.3-0.4-1-1-1c-0.5-0.1-1.1,0.2-1.6,0.4c-0.9,0.4-1.9,0.8-3,0.9
		c-1.3,0.1-2.6-0.3-3.8-0.7"/>
	<path class="st4" d="M87.2,20.2c-2.2,1.3-4.6,2.3-7.1,2.7c-1.4,0.3-2.8,0.3-4.2,0.3s-2.7,0.1-4,0.7c-2.5,0.7-5.4,1.6-8,0.7
		c0.4-0.6,0.7-1.2,1.1-1.8c2.5,0.4,5.1-0.1,7.4-1.3c1.7-0.5,3.6-0.4,5.4-0.4c1.8,0,3.7-0.3,5.2-1.2c1-0.6,2.1-1.1,3.2-1.5
		C86.5,19,86.7,19.6,87.2,20.2z"/>
	<path class="st5" d="M75.9,20.9c-0.2,0.1-0.1,0.8-0.1,1c0,0.5,0,0.8,0,1.3c0,0.1,0,0.2,0.1,0.3c0.1,0.1,0.2,0.1,0.3,0.1
		c0.8-0.1,1.5-0.1,2.2-0.1c0.1,0,0.3,0,0.4-0.1c0.1-0.1,0.1-0.2,0.1-0.3c0-0.4,0-0.8,0-1.2c0-0.2,0-0.8-0.1-0.9
		c-0.2-0.1-1.2,0-1.5,0C76.9,20.8,75.9,20.8,75.9,20.9z"/>
	<path class="st6" d="M76.5,21.8c-0.2,0-0.6,0-0.7,0"/>
	<path class="st6" d="M76.5,22.7c-0.3,0-0.6,0-0.7,0"/>
</g>
<g id="Layer_5">
	<path class="st7" d="M86.3,58.1c0,0-2.3-5.9-4.1-5.6c-1.2,0.2-2.3,3.9-2.7,7.2"/>
	<path class="st8" d="M70,55.4c2.6,6.1-2.9,16-5.3,18.9c-2,2.5-8.4,5.1-10.4,7.6c-7,9,0.4,24.7-7.8,28.9c-3.4,1.7-6.8-0.4-10.1-0.9
		c-8.6,0.4-9.7,1.4-17.9-3.8c-9.7,0.4-18.2-4.1-17-9.4c2-9.6,5.6-18.6,8.9-27.7c1.4-9.3,4.8-18.5,13.3-23.4
		C39.3,35.5,60.8,39.8,70,55.4z"/>
	<path class="st7" d="M70,54.8c7.5-1.5,12.1-1.8,18.5-5.4"/>
	<path class="st9" d="M29.6,49.3c-4.6,2.5-9,5.4-13.2,8.5c6,0.5,12,1.9,17.7,4C32.9,57.5,31.6,53.2,29.6,49.3z"/>
	<path class="st9" d="M52.5,57.5c-4.6,1.9-9.1,4-13.5,6.4c6.3,2.4,12.4,5.4,18.2,9.1C56.4,67.8,54.9,62.7,52.5,57.5z"/>
	<path class="st9" d="M17.4,70.3c2.6,0,3.1,0,5.3,0l1.2,6l8.3-2.7c0.9,1.9,1.6,3.8,3.1,7c0,0,4.8-2,7-3.1c0.2,4.8-0.1,9.5,0.1,14.3
		c-1.6-2.4-2.7-3.7-4.5-6.3l-6.2,5.2c-1.1-3.5-1.8-5.2-2.7-8.5c-2.7,2.4-3.2,2.6-6.3,4.7c-0.8-3-0.8-2.8-2.3-6.9c0-0.1-0.3,0-0.4,0
		c-0.9,0.3-4.7,1.4-6.4,2C13.8,78.8,15.9,73.1,17.4,70.3z"/>
</g>
</svg>
