<?xml version="1.0" encoding="utf-8"?>
<!-- Generator: Adobe Illustrator 21.0.0, SVG Export Plug-In . SVG Version: 6.00 Build 0)  -->
<svg version="1.1" id="Layer_2" xmlns="http://www.w3.org/2000/svg" xmlns:xlink="http://www.w3.org/1999/xlink" x="0px" y="0px"
	 viewBox="0 0 100 125" style="enable-background:new 0 0 100 125;" xml:space="preserve">
<style type="text/css">
	.st0{fill:none;stroke:#000000;stroke-width:3;stroke-miterlimit:10;}
	.st1{fill:none;stroke:#231F20;stroke-linecap:round;stroke-miterlimit:10;}
</style>
<path class="st0" d="M35.3,68.1c2-2.1,5.3-2.1,7.4-0.1c2.6,2.5,2.6,6.7,0.1,9.3c-3.2,3.2-8.4,3.3-11.6,0.1c-4-4-4.1-10.4-0.1-14.5
	c5-5,13.1-5.1,18.1-0.1c6.3,6.2,6.4,16.3,0.2,22.6c-7.7,7.9-20.4,8-28.3,0.2c-9.8-9.7-10-25.5-0.3-35.3C32.9,37.9,52.7,37.8,65,49.9
	c15.4,15.1,15.6,39.9,0.4,55.2"/>
<path class="st0" d="M14.7,82.6c-3.9,2-6.2,5.1-5.6,10.3c0.4,8.1,4.3,11.9,11.1,12.1h57.8c5.9,0,11.4-2.6,11.4-10.2V31.1
	c0.2-3-1.6-9.5-7.9-9.5h-7.7c-4.5,0-8.3,3.6-8.3,8.6v20"/>
<circle class="st1" cx="78" cy="30.8" r="2.1"/>
<circle class="st1" cx="78.9" cy="30.7" r="1.1"/>
</svg>
