<svg xmlns="http://www.w3.org/2000/svg" viewBox="0 0 100 125"><style>
@keyframes a0_o { 0% { opacity: 1; } 95.7% { opacity: 1; } 95.8% { opacity: 0; } 100% { opacity: 0; } }
@keyframes a0_do { 0% { stroke-dashoffset: 272.9px; animation-timing-function: cubic-bezier(1,0,.5,.4); } 26% { stroke-dashoffset: 0px; } 80% { stroke-dashoffset: 0px; animation-timing-function: cubic-bezier(1,0,.5,.4); } 96% { stroke-dashoffset: 272.9px; } 100% { stroke-dashoffset: 272.9px; } }
@keyframes a1_o { 0% { opacity: 0; } 17.8% { opacity: 0; } 18% { opacity: 1; } 92% { opacity: 1; } 92.2% { opacity: 0; } 100% { opacity: 0; } }
@keyframes a1_do { 0% { stroke-dashoffset: 224.4px; } 18% { stroke-dashoffset: 224.4px; } 30% { stroke-dashoffset: 0px; } 80% { stroke-dashoffset: 0px; } 92% { stroke-dashoffset: 224.4px; } 92.2% { stroke-dashoffset: 224.4px; } 100% { stroke-dashoffset: 224.4px; } }
@keyframes a2_o { 0% { opacity: 0; } 25.8% { opacity: 0; } 26% { opacity: 1; } 84% { opacity: 1; } 84.2% { opacity: 0; } 100% { opacity: 0; } }
@keyframes a2_do { 0% { stroke-dashoffset: 12.9px; } 26% { stroke-dashoffset: 12.9px; } 30% { stroke-dashoffset: 0px; } 80% { stroke-dashoffset: 0px; } 84% { stroke-dashoffset: 12.9px; } 96% { stroke-dashoffset: 12.9px; } 100% { stroke-dashoffset: 12.9px; } }
@keyframes a3_o { 0% { opacity: 0; } 25.8% { opacity: 0; } 26% { opacity: 1; } 84% { opacity: 1; } 84.2% { opacity: 0; } 100% { opacity: 0; } }
@keyframes a3_do { 0% { stroke-dashoffset: 6.2px; } 26% { stroke-dashoffset: 6.2px; } 30% { stroke-dashoffset: 0px; } 80% { stroke-dashoffset: 0px; } 84% { stroke-dashoffset: 6.2px; } 96% { stroke-dashoffset: 6.2px; } 100% { stroke-dashoffset: 6.2px; } }
</style><path class="st0" d="M35.3 68.1c2-2.1 5.3-2.1 7.4-0.1c2.6 2.5 2.6 6.7 .1 9.3c-3.2 3.2-8.4 3.3-11.6 .1c-4-4-4.1-10.4-0.1-14.5c5-5 13.1-5.1 18.1-0.1c6.3 6.2 6.4 16.3 .2 22.6c-7.7 7.9-20.4 8-28.3 .2c-9.8-9.7-10-25.5-0.3-35.3c12.1-12.4 31.9-12.5 44.2-0.4c15.4 15.1 15.6 39.9 .4 55.2" stroke-width="3" stroke="#000" stroke-miterlimit="10" fill="none" stroke-dasharray="272.9 272.9" stroke-dashoffset="272.9" style="animation: 5s linear infinite both a0_o, 5s linear infinite both a0_do;"/><path class="st0" d="M14.7 82.6c-3.9 2-6.2 5.1-5.6 10.3c.4 8.1 4.3 11.9 11.1 12.1h57.8c5.9 0 11.4-2.6 11.4-10.2v-63.7c.2-3-1.6-9.5-7.9-9.5h-7.7c-4.5 0-8.3 3.6-8.3 8.6v20" stroke-width="3" stroke="#000" stroke-miterlimit="10" fill="none" stroke-dasharray="224.4 224.4" opacity="0" stroke-dashoffset="224.4" style="animation: 5s linear infinite both a1_o, 5s linear infinite both a1_do;"/><ellipse class="st1" rx="2.1" ry="2.1" stroke="#231f20" stroke-miterlimit="10" fill="none" stroke-dasharray="12.9" opacity="0" stroke-dashoffset="12.9" transform="translate(77,30.8)" style="animation: 5s linear infinite both a2_o, 5s linear infinite both a2_do;"/><ellipse class="st1" rx="1.1" ry="1.1" stroke="#231f20" stroke-miterlimit="10" fill="none" stroke-dasharray="6.2 6.2" opacity="0" stroke-dashoffset="6.2" transform="translate(77.9,30.7)" style="animation: 5s linear infinite both a3_o, 5s linear infinite both a3_do;"/></svg>